<svg xmlns="http://www.w3.org/2000/svg" xmlns:xlink="http://www.w3.org/1999/xlink" width="218" height="230" viewBox="0 0 218 230">
  <defs>
    <path id="roundshapecta-b" d="M1314.29079,636.332494 L1326.3383,635.453982 C1337.96966,633.196468 1347.81967,628.696813 1355.88834,621.955016 C1363.95701,615.213219 1366.15898,613.118262 1362.49427,615.670144 C1365.32593,614.097905 1367.17172,609.778899 1368.03165,602.713125 C1368.89158,595.647352 1368.2357,585.061258 1366.06401,570.954842 L1359.10146,553.74639 C1350.01168,542.934014 1344.77968,537.203396 1343.40547,536.554536 C1341.34416,535.581245 1327.56943,524.460547 1309.23286,521.693134 C1290.89628,518.925722 1289.33447,518.209706 1282.04056,519.95142 C1274.74665,521.693134 1269.09038,524.696043 1264.59899,529.032972 C1261.60472,531.924258 1257.00811,539.244131 1250.80915,550.99259 C1247.28107,561.633448 1245.86911,570.03052 1246.57327,576.183805 C1247.62951,585.413733 1252.46934,607.128326 1256.48113,611.399235 C1260.49291,615.670144 1264.6878,627.862402 1282.04056,633.232257 C1293.60907,636.81216 1304.35914,637.845572 1314.29079,636.332494 Z"/>
    <filter id="roundshapecta-a" width="234.4%" height="239%" x="-67.2%" y="-67.8%" filterUnits="objectBoundingBox">
      <feOffset dy="2" in="SourceAlpha" result="shadowOffsetOuter1"/>
      <feGaussianBlur in="shadowOffsetOuter1" result="shadowBlurOuter1" stdDeviation="27"/>
      <feColorMatrix in="shadowBlurOuter1" values="0 0 0 0 0.320199275   0 0 0 0 0.320199275   0 0 0 0 0.320199275  0 0 0 0.44255354 0"/>
    </filter>
  </defs>
  <g fill="none" fill-rule="evenodd" transform="rotate(75 1013.397 -432.519)">
    <use fill="#000" filter="url(#roundshapecta-a)" xlink:href="#roundshapecta-b"/>
    <use fill="#8D9678" xlink:href="#roundshapecta-b"/>
  </g>
</svg>
